<?xml version="1.0" encoding="utf-8"?>
<!-- Generator: Adobe Illustrator 19.2.1, SVG Export Plug-In . SVG Version: 6.00 Build 0)  -->
<svg version="1.1" id="Layer_1" xmlns="http://www.w3.org/2000/svg" xmlns:xlink="http://www.w3.org/1999/xlink" x="0px" y="0px"
	 viewBox="0 0 128.001 150" style="enable-background:new 0 0 128.001 150;" xml:space="preserve">
<style type="text/css">
	.st0{fill:#FFFFFF;}
	.st1{fill:#CBDEAE;}
	.st2{fill:#869A42;}
	.st3{fill:#6D6E71;}
	.st4{fill:#B6B8BA;}
	.st5{fill:#414042;}
	.st6{fill:#C6C5C6;}
	.st7{fill:#333233;}
</style>
<g>
	<polyline class="st0" points="117.999,113.725 121.555,107.696 125.862,110.236 116.474,116.309 117.999,113.725 	"/>
	<polyline class="st0" points="108.45,132.334 108.079,140.382 103.773,137.842 107.329,131.813 108.191,132.321 108.45,132.334 	
		"/>
	<polyline class="st0" points="107.329,131.813 101.3,128.256 104.856,122.227 108.81,124.559 108.45,132.334 108.191,132.321 
		107.329,131.813 	"/>
	<polyline class="st5" points="107.329,131.813 103.773,137.842 97.744,134.286 101.3,128.256 107.329,131.813 	"/>
	<polyline class="st0" points="117.999,113.725 116.474,116.309 112.72,118.738 108.413,116.198 111.969,110.169 117.999,113.725 	
		"/>
	<polyline class="st5" points="121.555,107.696 117.999,113.725 111.969,110.169 115.526,104.139 121.555,107.696 	"/>
	<polyline class="st5" points="112.72,118.738 108.965,121.167 108.81,124.559 104.856,122.227 108.413,116.198 112.72,118.738 	"/>
	<polyline class="st0" points="101.3,128.256 97.744,134.286 91.714,130.729 95.271,124.7 101.3,128.256 	"/>
	<polyline class="st5" points="104.856,122.227 101.3,128.256 95.271,124.7 98.827,118.671 104.856,122.227 	"/>
	<polyline class="st0" points="108.413,116.198 104.856,122.227 98.827,118.671 102.384,112.642 108.413,116.198 	"/>
	<polyline class="st5" points="111.969,110.169 108.413,116.198 102.384,112.642 105.94,106.612 111.969,110.169 	"/>
	<polyline class="st0" points="115.526,104.139 111.969,110.169 105.94,106.612 109.497,100.583 115.526,104.139 	"/>
	<polyline class="st5" points="95.271,124.7 91.714,130.729 85.685,127.173 87.209,124.589 90.655,126.621 92.687,123.176 
		95.271,124.7 	"/>
	<polyline class="st0" points="98.827,118.671 95.271,124.7 92.687,123.176 94.211,120.592 96.243,117.147 98.827,118.671 	"/>
	<polyline class="st5" points="102.384,112.642 98.827,118.671 96.243,117.147 97.767,114.563 99.8,111.117 102.384,112.642 	"/>
	<polyline class="st0" points="105.94,106.612 102.384,112.642 99.8,111.117 101.324,108.533 103.356,105.088 105.94,106.612 	"/>
	<polyline class="st5" points="109.497,100.583 105.94,106.612 103.356,105.088 104.88,102.504 106.913,99.059 109.497,100.583 	"/>
	<polyline class="st0" points="92.687,123.176 90.655,126.621 87.209,124.589 84.625,123.065 88.182,117.035 94.211,120.592 
		92.687,123.176 	"/>
	<polyline class="st5" points="96.243,117.147 94.211,120.592 88.182,117.035 91.738,111.006 97.767,114.563 96.243,117.147 	"/>
	<polyline class="st0" points="99.8,111.117 97.767,114.563 91.738,111.006 95.295,104.977 101.324,108.533 99.8,111.117 	"/>
	<polyline class="st5" points="103.356,105.088 101.324,108.533 95.295,104.977 98.851,98.948 104.88,102.504 103.356,105.088 	"/>
	<polyline class="st0" points="106.913,99.059 104.88,102.504 98.851,98.948 102.408,92.918 108.437,96.475 106.913,99.059 	"/>
	<polyline class="st0" points="87.209,124.589 85.685,127.173 82.24,125.141 83.764,122.557 84.625,123.065 87.209,124.589 	"/>
	<polyline class="st5" points="88.182,117.035 84.625,123.065 83.764,122.557 78.596,119.508 82.153,113.479 88.182,117.035 	"/>
	
		<rect x="83.445" y="108.743" transform="matrix(0.5081 -0.8613 0.8613 0.5081 -53.9051 130.104)" class="st0" width="7" height="7"/>
	
		<rect x="87.002" y="102.713" transform="matrix(0.5081 -0.8613 0.8613 0.5081 -46.9624 130.2012)" class="st5" width="7" height="7"/>
	
		<rect x="90.558" y="96.684" transform="matrix(0.5081 -0.8613 0.8613 0.5081 -40.0198 130.2985)" class="st0" width="7" height="7"/>
	
		<rect x="94.115" y="90.655" transform="matrix(0.5081 -0.8613 0.8613 0.5081 -33.0772 130.3957)" class="st5" width="7" height="7"/>
	
		<rect x="73.86" y="111.215" transform="matrix(0.5081 -0.8613 0.8613 0.5081 -60.7505 123.0641)" class="st0" width="7" height="7"/>
	
		<rect x="77.416" y="105.186" transform="matrix(0.5081 -0.8613 0.8613 0.5081 -53.8079 123.1613)" class="st5" width="7" height="7"/>
	
		<rect x="80.973" y="99.157" transform="matrix(0.5081 -0.8613 0.8613 0.5081 -46.8652 123.2586)" class="st0" width="7" height="7"/>
	
		<rect x="84.529" y="93.128" transform="matrix(0.5081 -0.8613 0.8613 0.5081 -39.9226 123.3559)" class="st5" width="7" height="7"/>
	
		<rect x="88.085" y="87.098" transform="matrix(0.5081 -0.8613 0.8613 0.5081 -32.9799 123.453)" class="st0" width="7" height="7"/>
	
		<rect x="67.83" y="107.659" transform="matrix(0.5081 -0.8613 0.8613 0.5081 -60.6533 116.1214)" class="st5" width="7" height="7"/>
	
		<rect x="71.387" y="101.63" transform="matrix(0.5081 -0.8613 0.8613 0.5081 -53.7106 116.2187)" class="st0" width="7" height="7"/>
	<rect x="74.943" y="95.6" transform="matrix(0.5081 -0.8613 0.8613 0.5081 -46.768 116.3159)" class="st5" width="7" height="7"/>
	<rect x="78.5" y="89.571" transform="matrix(0.5081 -0.8613 0.8613 0.5081 -39.8253 116.4131)" class="st0" width="7" height="7"/>
	
		<rect x="82.056" y="83.542" transform="matrix(0.5081 -0.8613 0.8613 0.5081 -32.8827 116.5104)" class="st5" width="7" height="7"/>
	<path class="st5" d="M88.892,74.497c0.947,0.559,1.27,1.783,0.707,2.739c-0.559,0.947-1.791,1.265-2.739,0.707
		c-0.947-0.559-1.265-1.791-0.707-2.739C86.718,74.248,87.945,73.938,88.892,74.497z"/>
	<path class="st5" d="M109.002,142.088l-28.131-16.594l2.031-3.445c0.28-0.477,0.894-0.634,1.369-0.354
		c0.476,0.28,0.634,0.894,0.354,1.369l-1.016,1.723l23.547,13.891l0.833-18.07l15.971-10.332L106.404,99.92
		c-0.476-0.28-0.634-0.894-0.354-1.369c0.28-0.476,0.894-0.635,1.369-0.354l20.343,12l-17.822,11.529L109.002,142.088"/>
	<path class="st5" d="M44.885,150.102c-0.173,0-0.348-0.045-0.507-0.139c-0.476-0.28-0.634-0.894-0.354-1.369l41.975-71.159
		c0.28-0.477,0.894-0.634,1.369-0.354s0.634,0.894,0.354,1.369l-41.975,71.159C45.561,149.926,45.228,150.102,44.885,150.102z"/>
	<path class="st5" d="M91.008,127.99L66.03,113.257c-0.476-0.28-0.634-0.894-0.354-1.369c0.28-0.477,0.894-0.634,1.369-0.354
		l23.255,13.718l16.767-28.424L83.812,83.11c-0.476-0.28-0.634-0.894-0.354-1.369c0.28-0.477,0.894-0.634,1.369-0.354l24.979,14.733
		L91.008,127.99"/>
	<path class="st5" d="M87.867,79.219c-0.528,0-1.049-0.141-1.515-0.415c-1.425-0.84-1.9-2.683-1.061-4.108
		c0.842-1.424,2.686-1.898,4.108-1.06c0.689,0.407,1.179,1.057,1.38,1.831c0.202,0.777,0.088,1.586-0.32,2.279
		c-0.406,0.688-1.058,1.177-1.835,1.377C88.374,79.188,88.119,79.219,87.867,79.219z M87.878,75.22
		c-0.343,0-0.677,0.176-0.863,0.492c-0.28,0.475-0.121,1.089,0.354,1.369c0.229,0.135,0.496,0.172,0.758,0.104
		c0.26-0.066,0.477-0.229,0.611-0.457v-0.001c0.137-0.23,0.175-0.5,0.107-0.758s-0.23-0.476-0.46-0.611
		C88.226,75.265,88.051,75.22,87.878,75.22z"/>
	<path class="st5" d="M72.565,116.952c-0.173,0-0.348-0.045-0.507-0.139c-0.476-0.28-0.634-0.894-0.354-1.369l17.782-30.146
		c0.28-0.477,0.894-0.634,1.369-0.354s0.634,0.894,0.354,1.369L73.428,116.46C73.241,116.776,72.908,116.952,72.565,116.952z"/>
	<path class="st5" d="M78.595,120.508c-0.173,0-0.348-0.045-0.507-0.139c-0.476-0.28-0.634-0.894-0.354-1.369l17.782-30.146
		c0.28-0.477,0.894-0.635,1.369-0.354c0.476,0.28,0.634,0.894,0.354,1.369l-17.782,30.146
		C79.271,120.332,78.938,120.508,78.595,120.508z"/>
	<path class="st5" d="M84.624,124.064c-0.173,0-0.348-0.045-0.507-0.139c-0.476-0.28-0.634-0.894-0.354-1.369l17.782-30.146
		c0.28-0.477,0.893-0.634,1.369-0.354c0.476,0.28,0.634,0.894,0.354,1.369l-17.782,30.146
		C85.3,123.889,84.967,124.064,84.624,124.064"/>
	<path class="st5" d="M104.879,103.504c-0.173,0-0.348-0.045-0.507-0.139L80.256,89.14c-0.476-0.28-0.634-0.894-0.354-1.369
		c0.28-0.477,0.894-0.635,1.369-0.354l24.116,14.226c0.476,0.28,0.634,0.894,0.354,1.369
		C105.555,103.328,105.222,103.504,104.879,103.504"/>
	<path class="st5" d="M101.323,109.533c-0.173,0-0.348-0.045-0.507-0.139L76.699,95.169c-0.476-0.28-0.634-0.894-0.354-1.369
		c0.28-0.477,0.893-0.634,1.369-0.354l24.117,14.226c0.476,0.28,0.634,0.894,0.354,1.369
		C101.999,109.357,101.666,109.533,101.323,109.533"/>
	<path class="st5" d="M97.767,115.562c-0.173,0-0.348-0.045-0.507-0.139l-24.117-14.226c-0.476-0.28-0.634-0.894-0.354-1.369
		c0.28-0.477,0.895-0.634,1.369-0.354l24.117,14.226c0.476,0.28,0.634,0.894,0.354,1.369
		C98.442,115.387,98.109,115.562,97.767,115.562"/>
	<path class="st5" d="M94.21,121.592c-0.173,0-0.348-0.045-0.507-0.139l-24.117-14.226c-0.476-0.28-0.634-0.894-0.354-1.369
		c0.279-0.477,0.894-0.635,1.369-0.354l24.117,14.226c0.476,0.28,0.634,0.894,0.354,1.369
		C94.886,121.416,94.553,121.592,94.21,121.592"/>
	<path class="st5" d="M85.685,128.173c-0.173,0-0.348-0.045-0.507-0.139c-0.476-0.28-0.634-0.894-0.354-1.369l1.523-2.584
		c0.28-0.477,0.894-0.634,1.369-0.354c0.476,0.28,0.634,0.894,0.354,1.369l-1.523,2.584
		C86.36,127.997,86.027,128.173,85.685,128.173"/>
	<path class="st5" d="M91.713,131.729c-0.173,0-0.348-0.045-0.507-0.139c-0.476-0.28-0.634-0.894-0.354-1.369l17.782-30.146
		c0.28-0.477,0.894-0.634,1.369-0.354c0.476,0.28,0.634,0.894,0.354,1.369l-17.782,30.146
		C92.389,131.554,92.056,131.729,91.713,131.729"/>
	<path class="st5" d="M97.742,135.286c-0.173,0-0.348-0.045-0.507-0.139c-0.476-0.28-0.634-0.894-0.354-1.369l17.782-30.147
		c0.28-0.477,0.894-0.634,1.369-0.354c0.476,0.28,0.634,0.894,0.354,1.369l-17.782,30.147
		C98.418,135.11,98.085,135.286,97.742,135.286"/>
	<path class="st5" d="M116.474,117.31c-0.173,0-0.348-0.045-0.507-0.139c-0.476-0.28-0.634-0.894-0.354-1.369l5.08-8.613
		c0.28-0.477,0.894-0.634,1.369-0.354c0.476,0.28,0.634,0.894,0.354,1.369l-5.08,8.613
		C117.149,117.134,116.816,117.31,116.474,117.31"/>
	<path class="st5" d="M103.771,138.842c-0.173,0-0.348-0.045-0.507-0.139c-0.476-0.28-0.634-0.894-0.354-1.369l4.573-7.752
		c0.281-0.477,0.896-0.632,1.369-0.354c0.476,0.281,0.634,0.894,0.354,1.369l-4.573,7.752
		C104.447,138.666,104.114,138.842,103.771,138.842"/>
	<path class="st5" d="M118.859,115.233c-0.173,0-0.348-0.045-0.507-0.139l-15.504-9.146c-0.476-0.28-0.634-0.894-0.354-1.369
		c0.28-0.477,0.894-0.634,1.369-0.354l15.504,9.146c0.476,0.28,0.634,0.894,0.354,1.369
		C119.535,115.058,119.202,115.233,118.859,115.233"/>
	<path class="st5" d="M112.719,119.738c-0.173,0-0.348-0.045-0.507-0.139l-12.92-7.621c-0.476-0.28-0.634-0.894-0.354-1.369
		c0.28-0.477,0.893-0.634,1.369-0.354l12.92,7.621c0.476,0.28,0.634,0.894,0.354,1.369
		C113.395,119.563,113.062,119.738,112.719,119.738"/>
	<path class="st5" d="M108.809,125.56c-0.173,0-0.348-0.045-0.507-0.139l-12.566-7.413c-0.476-0.28-0.634-0.894-0.354-1.369
		c0.28-0.477,0.895-0.634,1.369-0.354l12.566,7.413c0.476,0.28,0.634,0.894,0.354,1.369
		C109.484,125.384,109.151,125.56,108.809,125.56"/>
	<path class="st5" d="M108.189,133.321c-0.173,0-0.348-0.045-0.508-0.139l-15.503-9.146c-0.476-0.28-0.634-0.894-0.354-1.369
		c0.28-0.477,0.894-0.634,1.369-0.354l15.505,9.146c0.476,0.281,0.633,0.895,0.353,1.37
		C108.865,133.145,108.531,133.321,108.189,133.321"/>
	<path class="st6" d="M108.284,98.702l-0.002,0.004l19.481,11.492l-10.707,6.926c-0.024,0.017-0.05,0.034-0.076,0.049l-3.685,2.384
		c-0.021,0.015-0.043,0.029-0.065,0.042l-3.29,2.128l-0.131,2.842c0,0.025-0.001,0.051-0.004,0.077l-0.801,17.381l0.023,0.014
		l0.987-20.258l17.786-11.568L108.284,98.702"/>
	<polyline class="st6" points="121.908,109.065 119.488,113.168 123.96,110.275 121.908,109.065 	"/>
	<polyline class="st6" points="107.386,133.684 105.141,137.489 107.156,138.678 107.386,133.684 	"/>
	<path class="st6" d="M105.209,123.597l-2.54,4.306l4.307,2.54l0.508-0.862c0.029-0.049,0.062-0.095,0.097-0.137l0.2-4.331
		L105.209,123.597"/>
	<polyline class="st6" points="112.322,111.538 109.782,115.845 112.695,117.563 115.734,115.597 116.63,114.078 112.322,111.538 	
		"/>
	<polyline class="st7" points="115.879,105.509 113.338,109.815 117.646,112.356 120.186,108.049 115.879,105.509 	"/>
	<polyline class="st7" points="108.766,117.567 106.225,121.874 107.886,122.854 107.989,120.607 110.818,118.777 108.766,117.567 	
		"/>
	<polyline class="st6" points="109.849,101.952 107.309,106.259 111.616,108.799 114.156,104.493 109.849,101.952 	"/>
	<polyline class="st7" points="107.266,100.428 104.726,104.735 105.587,105.243 108.127,100.936 107.266,100.428 	"/>
	<path class="st7" d="M109.806,124.645c-0.012,0.145-0.056,0.289-0.135,0.423c-0.186,0.316-0.52,0.492-0.862,0.492
		c-0.173,0-0.348-0.045-0.507-0.139l-0.52-0.307l-0.2,4.331c0.194-0.229,0.477-0.354,0.766-0.354c0.173,0,0.347,0.045,0.506,0.138
		c0.476,0.281,0.634,0.894,0.354,1.369l-0.508,0.862l0.001,0c0.476,0.281,0.633,0.895,0.353,1.37
		c-0.187,0.315-0.521,0.491-0.862,0.491c-0.173,0-0.347-0.045-0.508-0.139l-0.295,0.501l-0.23,4.994l-2.015-1.189l-0.508,0.86
		c-0.187,0.316-0.52,0.492-0.862,0.492c-0.066,0-0.133-0.007-0.199-0.02l5.433,3.204L109.806,124.645 M110.818,118.777l-2.829,1.83
		l-0.104,2.246l1.432,0.845c0.319,0.188,0.495,0.525,0.492,0.87l0.131-2.842l3.29-2.128c-0.155,0.092-0.332,0.14-0.512,0.14
		c-0.173,0-0.348-0.045-0.507-0.139L110.818,118.777 M115.734,115.597l-3.039,1.966l0.532,0.314c0.476,0.28,0.634,0.894,0.354,1.369
		c-0.075,0.127-0.173,0.231-0.285,0.31l3.685-2.384c-0.153,0.09-0.329,0.137-0.507,0.137c-0.173,0-0.348-0.045-0.507-0.139
		c-0.476-0.28-0.634-0.894-0.354-1.369L115.734,115.597 M108.282,98.706l-1.016,1.722l0.861,0.508l0.508-0.861
		c0.186-0.317,0.52-0.492,0.862-0.492c0.173,0,0.348,0.045,0.507,0.139c0.476,0.28,0.634,0.894,0.354,1.369l-0.508,0.861
		l4.307,2.541l0.508-0.861c0.186-0.317,0.52-0.492,0.862-0.492c0.173,0,0.348,0.045,0.507,0.139c0.476,0.28,0.634,0.894,0.354,1.369
		l-0.508,0.861l4.307,2.541l0.508-0.861c0.186-0.317,0.52-0.492,0.862-0.492c0.173,0,0.348,0.045,0.507,0.139
		c0.476,0.28,0.634,0.894,0.354,1.369l-0.508,0.861l2.052,1.21l-4.472,2.893l-0.12,0.204l0,0c0.476,0.28,0.634,0.894,0.354,1.369
		c-0.186,0.316-0.52,0.492-0.862,0.492c-0.173,0-0.348-0.045-0.507-0.139l0,0l-1.017,1.723c-0.073,0.125-0.17,0.227-0.28,0.306
		l10.707-6.926L108.282,98.706"/>
	<path class="st6" d="M103.71,106.457l-1.518,2.573c-0.002,0.004-0.004,0.007-0.007,0.011c-0.002,0.004-0.005,0.008-0.007,0.012
		l-1.009,1.711l0.861,0.508l2.54-4.307L103.71,106.457"/>
	<path class="st7" d="M102.192,109.03l-0.014,0.023c0.002-0.004,0.005-0.008,0.007-0.012
		C102.188,109.037,102.19,109.034,102.192,109.03"/>
	<polyline class="st7" points="106.293,107.981 103.753,112.288 108.06,114.829 110.6,110.522 106.293,107.981 	"/>
	<polyline class="st7" points="100.153,112.486 97.613,116.793 98.474,117.301 101.014,112.994 100.153,112.486 	"/>
	<polyline class="st6" points="102.737,114.01 100.196,118.317 104.503,120.858 107.044,116.551 102.737,114.01 	"/>
	<polyline class="st6" points="96.597,118.516 94.056,122.823 94.917,123.331 97.458,119.024 96.597,118.516 	"/>
	<polyline class="st7" points="99.18,120.04 96.64,124.347 100.947,126.887 103.487,122.581 99.18,120.04 	"/>
	<polyline class="st6" points="82.395,122.91 80.898,125.447 82.395,122.91 82.395,122.91 	"/>
	<polyline class="st6" points="84.117,123.926 83.609,124.787 85.332,125.803 85.84,124.942 84.128,123.932 84.117,123.926 	"/>
	<path class="st7" d="M82.395,122.91l-1.496,2.538l4.026,2.375c-0.269-0.316-0.323-0.78-0.101-1.157l0.508-0.862l-1.723-1.016
		l0.508-0.861l0,0c-0.004-0.002-0.008-0.005-0.012-0.007L82.395,122.91"/>
	<path class="st7" d="M84.128,123.932l1.712,1.01l0.002-0.003l-1.647-0.971C84.173,123.956,84.15,123.945,84.128,123.932
		 M82.397,122.906l-0.002,0.003l0,0l1.711,1.009c-0.022-0.013-0.043-0.027-0.063-0.042L82.397,122.906"/>
	<path class="st7" d="M84.042,123.877c0.02,0.015,0.041,0.029,0.063,0.042c0.004,0.002,0.008,0.005,0.012,0.007l0,0
		c0.004,0.002,0.007,0.004,0.011,0.006c0.022,0.013,0.044,0.024,0.067,0.035L84.042,123.877"/>
	<polyline class="st7" points="93.04,124.545 91.01,127.987 91.008,127.99 87.563,125.958 87.055,126.82 91.361,129.36 
		93.901,125.053 93.04,124.545 	"/>
	<path class="st7" d="M87.055,126.82l-0.508,0.861c-0.187,0.316-0.52,0.492-0.862,0.492c-0.067,0-0.133-0.007-0.199-0.02
		l5.467,3.225c-0.268-0.316-0.321-0.779-0.099-1.156l0.508-0.862L87.055,126.82"/>
	<polyline class="st7" points="87.564,125.955 87.563,125.958 91.008,127.99 91.01,127.987 87.564,125.955 	"/>
	<polyline class="st6" points="95.624,126.069 93.083,130.376 97.39,132.917 99.93,128.61 95.624,126.069 	"/>
	<path class="st7" d="M93.083,130.376l-0.508,0.861c-0.187,0.316-0.52,0.492-0.862,0.492c-0.066,0-0.132-0.007-0.198-0.02
		l5.466,3.224c-0.268-0.316-0.321-0.779-0.099-1.155l0.508-0.862L93.083,130.376"/>
	<polyline class="st7" points="101.653,129.626 99.113,133.933 103.419,136.473 105.96,132.167 101.653,129.626 	"/>
	<path class="st7" d="M99.113,133.933l-0.508,0.861c-0.186,0.316-0.52,0.492-0.862,0.492c-0.066,0-0.132-0.007-0.197-0.02
		l5.466,3.225c-0.269-0.316-0.323-0.78-0.1-1.157l0.508-0.861L99.113,133.933"/>
	<path class="st7" d="M85.842,124.939l-0.002,0.003l-0.508,0.861l-0.508,0.862c-0.222,0.377-0.169,0.841,0.101,1.157l0.56,0.331
		c0.066,0.014,0.133,0.02,0.199,0.02c0.343,0,0.676-0.176,0.862-0.492l0.508-0.861l0.508-0.862l0.002-0.003L85.842,124.939"/>
	<path class="st7" d="M93.901,125.053l-2.54,4.307l-0.508,0.862c-0.222,0.377-0.169,0.84,0.099,1.156l0.563,0.332
		c0.065,0.013,0.132,0.02,0.198,0.02c0.343,0,0.676-0.176,0.862-0.492l0.508-0.861l2.54-4.307L93.901,125.053 M97.458,119.024
		l-2.54,4.307l1.722,1.016l2.54-4.307L97.458,119.024 M101.014,112.994l-2.541,4.307l1.722,1.016l2.541-4.307L101.014,112.994
		 M104.571,106.965l-2.54,4.307l1.722,1.016l2.54-4.307L104.571,106.965 M109.496,99.583c-0.342,0-0.675,0.176-0.862,0.492
		l-0.508,0.861l-2.54,4.307l1.722,1.016l2.54-4.307l0.508-0.861c0.28-0.476,0.122-1.089-0.354-1.369
		C109.844,99.628,109.669,99.583,109.496,99.583"/>
	<path class="st7" d="M99.93,128.61l-2.54,4.307l-0.508,0.862c-0.222,0.377-0.169,0.84,0.099,1.155l0.564,0.333
		c0.065,0.013,0.131,0.02,0.197,0.02c0.343,0,0.676-0.176,0.862-0.492l0.508-0.861l2.54-4.307L99.93,128.61 M103.487,122.581
		l-2.54,4.307l1.722,1.016l2.54-4.306L103.487,122.581 M107.044,116.551l-2.541,4.307l1.722,1.016l2.541-4.307L107.044,116.551
		 M110.6,110.522l-2.54,4.307l1.722,1.016l2.54-4.307L110.6,110.522 M115.526,103.139c-0.342,0-0.675,0.176-0.862,0.492
		l-0.508,0.861l-2.54,4.307l1.722,1.016l2.54-4.307l0.508-0.861c0.28-0.476,0.122-1.089-0.354-1.369
		C115.874,103.184,115.699,103.139,115.526,103.139"/>
	<path class="st7" d="M116.63,114.078l-0.896,1.519l-0.121,0.205c-0.28,0.476-0.122,1.089,0.354,1.369
		c0.159,0.094,0.334,0.139,0.507,0.139c0.178,0,0.353-0.047,0.507-0.137c0.026-0.015,0.051-0.031,0.076-0.049
		c0.111-0.079,0.207-0.182,0.28-0.306l1.016-1.723L116.63,114.078 M121.555,106.696c-0.342,0-0.676,0.176-0.862,0.492l-0.508,0.861
		l-2.54,4.307l1.723,1.016l0.12-0.204l2.42-4.103l0.508-0.861c0.28-0.476,0.122-1.089-0.354-1.369
		C121.903,106.741,121.728,106.696,121.555,106.696"/>
	<path class="st7" d="M105.96,132.167l-2.541,4.306l-0.508,0.861c-0.222,0.377-0.169,0.841,0.1,1.157l0.561,0.331
		c0.066,0.014,0.133,0.02,0.199,0.02c0.343,0,0.676-0.176,0.862-0.492l0.508-0.86l2.245-3.806l0.295-0.501c0,0,0,0,0,0
		L105.96,132.167 M108.348,129.091c-0.289,0-0.572,0.125-0.766,0.354c-0.036,0.042-0.068,0.088-0.097,0.137l-0.508,0.862
		l1.722,1.016l0.508-0.862c0.28-0.476,0.122-1.088-0.354-1.369C108.695,129.135,108.52,129.091,108.348,129.091"/>
	<path class="st7" d="M104.726,104.735l-1.016,1.722l0.861,0.508l1.722,1.016l4.307,2.541l1.722,1.016l4.307,2.541l1.723,1.016
		c0.159,0.094,0.334,0.139,0.507,0.139c0.343,0,0.676-0.176,0.862-0.492c0.28-0.476,0.122-1.089-0.354-1.369l0,0l-1.723-1.016
		l-4.307-2.541l-1.722-1.016l-4.307-2.541l-1.722-1.016L104.726,104.735"/>
	<path class="st7" d="M101.169,110.764l-1.016,1.722l0.861,0.508l1.722,1.016l4.307,2.541l1.722,1.016l2.052,1.21l1.394,0.822
		c0.159,0.094,0.334,0.139,0.507,0.139c0.18,0,0.357-0.048,0.512-0.14c0.022-0.013,0.044-0.027,0.065-0.042
		c0.113-0.079,0.211-0.183,0.285-0.31c0.28-0.476,0.122-1.089-0.354-1.369l-0.532-0.314l-2.913-1.718l-1.722-1.016l-4.307-2.541
		l-1.722-1.016L101.169,110.764"/>
	<path class="st7" d="M97.613,116.793l-1.016,1.722l0.861,0.508l1.722,1.016l4.307,2.541l1.722,1.016l2.572,1.517l0.52,0.307
		c0.159,0.094,0.334,0.139,0.507,0.139c0.343,0,0.676-0.176,0.862-0.492c0.079-0.133,0.123-0.278,0.135-0.423
		c0.002-0.026,0.003-0.051,0.004-0.077c0.003-0.345-0.173-0.682-0.492-0.87l-1.432-0.845l-1.66-0.979l-1.722-1.016l-4.307-2.541
		l-1.722-1.016L97.613,116.793"/>
	<path class="st7" d="M94.056,122.823l-1.016,1.722l0.861,0.508l1.722,1.016l4.307,2.541l1.722,1.016l4.307,2.541l1.722,1.016
		c0,0,0,0,0,0c0.16,0.094,0.335,0.139,0.508,0.139c0.342,0,0.676-0.176,0.862-0.491c0.28-0.476,0.123-1.089-0.353-1.37l-0.001,0
		l-1.722-1.016l-4.307-2.54l-1.722-1.016l-4.307-2.54l-1.722-1.016L94.056,122.823"/>
	<polyline class="st0" points="9.802,113.725 6.246,107.696 1.939,110.236 11.326,116.309 9.802,113.725 	"/>
	<polyline class="st0" points="19.351,132.334 19.721,140.382 24.028,137.842 20.471,131.813 19.61,132.321 19.351,132.334 	"/>
	<polyline class="st0" points="20.471,131.813 26.501,128.256 22.944,122.227 18.991,124.559 19.351,132.334 19.61,132.321 
		20.471,131.813 	"/>
	<polyline class="st5" points="20.471,131.813 24.028,137.842 30.057,134.286 26.501,128.256 20.471,131.813 	"/>
	<polyline class="st0" points="9.802,113.725 11.326,116.309 15.081,118.738 19.388,116.198 15.831,110.169 9.802,113.725 	"/>
	<polyline class="st5" points="6.246,107.696 9.802,113.725 15.831,110.169 12.275,104.139 6.246,107.696 	"/>
	<polyline class="st5" points="15.081,118.738 18.836,121.167 18.991,124.559 22.944,122.227 19.388,116.198 15.081,118.738 	"/>
	<polyline class="st0" points="26.501,128.256 30.057,134.286 36.086,130.729 32.53,124.7 26.501,128.256 	"/>
	<polyline class="st5" points="22.944,122.227 26.501,128.256 32.53,124.7 28.973,118.671 22.944,122.227 	"/>
	<polyline class="st0" points="19.388,116.198 22.944,122.227 28.973,118.671 25.417,112.642 19.388,116.198 	"/>
	<polyline class="st5" points="15.831,110.169 19.388,116.198 25.417,112.642 21.861,106.612 15.831,110.169 	"/>
	<polyline class="st0" points="12.275,104.139 15.831,110.169 21.861,106.612 18.304,100.583 12.275,104.139 	"/>
	<polyline class="st5" points="32.53,124.7 36.086,130.729 42.116,127.173 40.591,124.589 37.146,126.621 35.114,123.176 
		32.53,124.7 	"/>
	<polyline class="st0" points="28.973,118.671 32.53,124.7 35.114,123.176 33.59,120.592 31.557,117.147 28.973,118.671 	"/>
	<polyline class="st5" points="25.417,112.642 28.973,118.671 31.557,117.147 30.033,114.563 28.001,111.117 25.417,112.642 	"/>
	<polyline class="st0" points="21.861,106.612 25.417,112.642 28.001,111.117 26.477,108.533 24.445,105.088 21.861,106.612 	"/>
	<polyline class="st5" points="18.304,100.583 21.861,106.612 24.445,105.088 22.92,102.504 20.888,99.059 18.304,100.583 	"/>
	<polyline class="st0" points="35.114,123.176 37.146,126.621 40.591,124.589 43.175,123.065 39.619,117.035 33.59,120.592 
		35.114,123.176 	"/>
	<polyline class="st5" points="31.557,117.147 33.59,120.592 39.619,117.035 36.062,111.006 30.033,114.563 31.557,117.147 	"/>
	<polyline class="st0" points="28.001,111.117 30.033,114.563 36.062,111.006 32.506,104.977 26.477,108.533 28.001,111.117 	"/>
	<polyline class="st5" points="24.445,105.088 26.477,108.533 32.506,104.977 28.95,98.948 22.92,102.504 24.445,105.088 	"/>
	<polyline class="st0" points="20.888,99.059 22.92,102.504 28.95,98.948 25.393,92.918 19.364,96.475 20.888,99.059 	"/>
	<polyline class="st0" points="40.591,124.589 42.116,127.173 45.561,125.141 44.037,122.557 43.175,123.065 40.591,124.589 	"/>
	<polyline class="st5" points="39.619,117.035 43.175,123.065 44.037,122.557 49.205,119.508 45.648,113.479 39.619,117.035 	"/>
	
		<rect x="37.355" y="108.743" transform="matrix(0.8613 -0.5081 0.5081 0.8613 -51.3605 36.3229)" class="st0" width="7" height="7"/>
	
		<rect x="33.799" y="102.713" transform="matrix(0.8613 -0.5081 0.5081 0.8613 -48.7905 33.6799)" class="st5" width="7" height="7"/>
	
		<rect x="30.242" y="96.684" transform="matrix(0.8613 -0.5081 0.5081 0.8613 -46.2204 31.0368)" class="st0" width="7" height="7"/>
	
		<rect x="26.686" y="90.655" transform="matrix(0.8613 -0.5081 0.5081 0.8613 -43.6504 28.3938)" class="st5" width="7" height="7"/>
	
		<rect x="46.941" y="111.215" transform="matrix(0.8613 -0.5081 0.5081 0.8613 -51.2875 41.536)" class="st0" width="7" height="7"/>
	
		<rect x="43.385" y="105.186" transform="matrix(0.8613 -0.5081 0.5081 0.8613 -48.7175 38.893)" class="st5" width="7" height="7"/>
	
		<rect x="39.828" y="99.157" transform="matrix(0.8613 -0.5081 0.5081 0.8613 -46.1474 36.2499)" class="st0" width="7" height="7"/>
	
		<rect x="36.272" y="93.128" transform="matrix(0.8613 -0.5081 0.5081 0.8613 -43.5774 33.6068)" class="st5" width="7" height="7"/>
	
		<rect x="32.715" y="87.098" transform="matrix(0.8613 -0.5081 0.5081 0.8613 -41.0074 30.9638)" class="st0" width="7" height="7"/>
	<rect x="52.97" y="107.659" transform="matrix(0.8613 -0.5081 0.5081 0.8613 -48.6444 44.106)" class="st5" width="7" height="7"/>
	<rect x="49.414" y="101.63" transform="matrix(0.8613 -0.5081 0.5081 0.8613 -46.0744 41.463)" class="st0" width="7" height="7"/>
	<rect x="45.857" y="95.6" transform="matrix(0.8613 -0.5081 0.5081 0.8613 -43.5044 38.8199)" class="st5" width="7" height="7"/>
	
		<rect x="42.301" y="89.571" transform="matrix(0.8613 -0.5081 0.5081 0.8613 -40.9344 36.1769)" class="st0" width="7" height="7"/>
	
		<rect x="38.744" y="83.542" transform="matrix(0.8613 -0.5081 0.5081 0.8613 -38.3643 33.5339)" class="st5" width="7" height="7"/>
	<path class="st5" d="M38.908,74.497c-0.947,0.559-1.27,1.783-0.707,2.739c0.559,0.947,1.791,1.265,2.739,0.707
		c0.947-0.559,1.265-1.791,0.707-2.739C41.083,74.248,39.856,73.938,38.908,74.497z"/>
	<path class="st5" d="M18.798,142.088l-0.938-20.361L0.037,110.197l20.343-12c0.475-0.28,1.088-0.123,1.37,0.354
		c0.281,0.476,0.123,1.089-0.353,1.369L3.841,110.275l15.971,10.332l0.833,18.07l23.547-13.891l-1.016-1.723
		c-0.28-0.476-0.122-1.089,0.354-1.369c0.474-0.28,1.088-0.123,1.369,0.354l2.031,3.445L18.798,142.088"/>
	<path class="st5" d="M82.916,150.102c-0.343,0-0.676-0.176-0.862-0.492L40.079,78.45c-0.281-0.476-0.123-1.089,0.354-1.369
		c0.476-0.279,1.089-0.122,1.369,0.354l41.975,71.159c0.28,0.476,0.122,1.089-0.354,1.369
		C83.264,150.057,83.089,150.102,82.916,150.102z"/>
	<path class="st5" d="M36.793,127.99L17.994,96.121l24.979-14.733c0.474-0.28,1.088-0.123,1.369,0.354
		c0.28,0.476,0.122,1.089-0.354,1.369L20.733,96.828l16.766,28.424l23.256-13.718c0.475-0.28,1.088-0.123,1.369,0.354
		c0.28,0.476,0.122,1.089-0.354,1.369L36.793,127.99"/>
	<path class="st5" d="M39.929,79.219c-1.028,0-2.03-0.527-2.589-1.475c-0.84-1.425-0.365-3.268,1.06-4.108
		c1.425-0.84,3.267-0.364,4.109,1.06c0.84,1.426,0.364,3.269-1.061,4.108C40.971,79.085,40.447,79.219,39.929,79.219z
		 M39.063,76.729c0.281,0.475,0.895,0.632,1.37,0.353c0.475-0.28,0.634-0.895,0.354-1.37c-0.281-0.475-0.896-0.633-1.37-0.353
		C38.941,75.639,38.783,76.253,39.063,76.729z"/>
	<path class="st5" d="M55.234,116.952c-0.343,0-0.676-0.176-0.862-0.492L36.59,86.313c-0.281-0.476-0.123-1.089,0.354-1.369
		c0.474-0.279,1.088-0.123,1.369,0.354l17.782,30.146c0.28,0.476,0.122,1.089-0.354,1.369
		C55.582,116.907,55.407,116.952,55.234,116.952z"/>
	<path class="st5" d="M49.205,120.508c-0.343,0-0.676-0.176-0.862-0.492L30.561,89.87c-0.281-0.476-0.123-1.089,0.353-1.369
		c0.475-0.279,1.089-0.123,1.37,0.354L50.065,119c0.28,0.476,0.122,1.089-0.354,1.369C49.553,120.463,49.378,120.508,49.205,120.508
		z"/>
	<path class="st5" d="M43.177,124.064c-0.343,0-0.676-0.176-0.862-0.492L24.532,93.426c-0.281-0.476-0.123-1.089,0.353-1.369
		c0.476-0.28,1.088-0.123,1.37,0.354l17.783,30.146c0.28,0.476,0.122,1.089-0.354,1.369C43.524,124.02,43.35,124.064,43.177,124.064
		"/>
	<path class="st5" d="M22.921,103.504c-0.342,0-0.676-0.176-0.862-0.492c-0.281-0.476-0.123-1.089,0.353-1.369l24.117-14.226
		c0.474-0.281,1.089-0.123,1.369,0.354c0.28,0.476,0.122,1.089-0.354,1.369l-24.116,14.226
		C23.269,103.459,23.094,103.504,22.921,103.504"/>
	<path class="st5" d="M26.478,109.533c-0.342,0-0.676-0.176-0.862-0.492c-0.281-0.476-0.123-1.089,0.353-1.369l24.118-14.226
		c0.475-0.28,1.089-0.123,1.369,0.354c0.28,0.476,0.122,1.089-0.354,1.369l-24.117,14.226
		C26.825,109.488,26.65,109.533,26.478,109.533"/>
	<path class="st5" d="M30.034,115.562c-0.342,0-0.676-0.176-0.862-0.492c-0.281-0.476-0.123-1.089,0.353-1.369l24.118-14.226
		c0.475-0.28,1.088-0.123,1.369,0.354c0.28,0.476,0.122,1.089-0.354,1.369l-24.117,14.226
		C30.382,115.518,30.207,115.562,30.034,115.562"/>
	<path class="st5" d="M33.591,121.592c-0.342,0-0.676-0.176-0.862-0.492c-0.281-0.476-0.123-1.089,0.353-1.369l24.118-14.226
		c0.474-0.281,1.088-0.123,1.369,0.354c0.28,0.476,0.122,1.089-0.354,1.369l-24.117,14.226
		C33.938,121.547,33.764,121.592,33.591,121.592"/>
	<path class="st5" d="M42.116,128.173c-0.343,0-0.676-0.176-0.862-0.492l-1.524-2.584c-0.281-0.476-0.123-1.089,0.354-1.369
		c0.475-0.279,1.089-0.122,1.37,0.354l1.523,2.584c0.28,0.476,0.122,1.089-0.354,1.369
		C42.464,128.128,42.289,128.173,42.116,128.173"/>
	<path class="st5" d="M36.087,131.729c-0.342,0-0.676-0.176-0.862-0.492l-17.782-30.146c-0.281-0.476-0.123-1.089,0.354-1.369
		c0.474-0.281,1.088-0.123,1.369,0.354l17.782,30.146c0.281,0.476,0.123,1.089-0.353,1.369
		C36.435,131.685,36.26,131.729,36.087,131.729"/>
	<path class="st5" d="M30.058,135.286c-0.342,0-0.676-0.176-0.862-0.492l-17.782-30.147c-0.281-0.476-0.123-1.089,0.353-1.369
		c0.475-0.279,1.089-0.123,1.37,0.354l17.782,30.147c0.281,0.476,0.123,1.089-0.353,1.369
		C30.406,135.241,30.231,135.286,30.058,135.286"/>
	<path class="st5" d="M11.327,117.31c-0.342,0-0.676-0.176-0.862-0.492l-5.081-8.613c-0.281-0.476-0.123-1.089,0.353-1.369
		c0.476-0.279,1.088-0.123,1.37,0.354l5.081,8.613c0.281,0.476,0.123,1.089-0.354,1.369C11.675,117.265,11.5,117.31,11.327,117.31"
		/>
	<path class="st5" d="M24.029,138.842c-0.342,0-0.676-0.176-0.862-0.492l-4.573-7.752c-0.281-0.476-0.123-1.089,0.353-1.369
		c0.475-0.28,1.088-0.123,1.37,0.354l4.573,7.752c0.281,0.476,0.123,1.089-0.353,1.369
		C24.376,138.797,24.202,138.842,24.029,138.842"/>
	<path class="st5" d="M8.942,115.233c-0.342,0-0.676-0.176-0.862-0.492c-0.281-0.476-0.122-1.089,0.354-1.369l15.503-9.146
		c0.476-0.28,1.089-0.123,1.37,0.354c0.281,0.476,0.123,1.089-0.353,1.369l-15.504,9.146C9.29,115.188,9.114,115.233,8.942,115.233"
		/>
	<path class="st5" d="M15.082,119.738c-0.342,0-0.676-0.176-0.862-0.492c-0.281-0.476-0.123-1.089,0.354-1.369l12.919-7.621
		c0.476-0.281,1.089-0.123,1.37,0.354c0.281,0.476,0.123,1.089-0.353,1.369l-12.92,7.621
		C15.43,119.693,15.254,119.738,15.082,119.738"/>
	<path class="st5" d="M18.992,125.56c-0.342,0-0.676-0.176-0.862-0.492c-0.281-0.476-0.123-1.089,0.354-1.369l12.566-7.413
		c0.475-0.28,1.089-0.123,1.37,0.354c0.281,0.476,0.123,1.089-0.353,1.369l-12.567,7.413
		C19.339,125.515,19.165,125.56,18.992,125.56"/>
	<path class="st5" d="M19.611,133.321c-0.342,0-0.675-0.176-0.862-0.491c-0.281-0.476-0.123-1.089,0.352-1.37l15.504-9.146
		c0.476-0.28,1.088-0.123,1.37,0.354c0.281,0.476,0.123,1.089-0.353,1.369l-15.503,9.146
		C19.959,133.276,19.784,133.321,19.611,133.321"/>
	<path class="st6" d="M19.517,98.702L0,110.214l17.786,11.568l0.987,20.258l0.023-0.013l-0.8-17.366
		c-0.004-0.036-0.005-0.072-0.005-0.108l-0.13-2.825l-3.295-2.131c-0.019-0.011-0.038-0.024-0.056-0.036l-3.695-2.39
		c-0.022-0.013-0.043-0.026-0.063-0.041l-10.714-6.93l19.481-11.492L19.517,98.702"/>
	<polyline class="st7" points="11.922,105.509 7.615,108.049 10.155,112.356 14.462,109.816 11.922,105.509 	"/>
	<polyline class="st6" points="5.892,109.065 3.841,110.275 8.312,113.168 5.892,109.065 	"/>
	<polyline class="st6" points="15.478,111.538 11.171,114.079 12.067,115.597 15.106,117.563 18.018,115.845 15.478,111.538 	"/>
	<polyline class="st7" points="19.034,117.567 16.983,118.777 19.812,120.607 19.915,122.853 21.575,121.874 19.034,117.567 	"/>
	<path class="st6" d="M22.591,123.597l-2.572,1.517l0.2,4.33c0.036,0.042,0.069,0.088,0.098,0.138l0.508,0.861l4.307-2.54
		L22.591,123.597"/>
	<polyline class="st6" points="20.414,133.683 20.644,138.678 22.659,137.489 20.414,133.683 	"/>
	<polyline class="st6" points="17.951,101.952 13.644,104.493 16.184,108.799 20.491,106.259 17.951,101.952 	"/>
	<polyline class="st7" points="20.535,100.428 19.673,100.936 22.214,105.243 23.075,104.735 20.535,100.428 	"/>
	<path class="st7" d="M17.996,124.66l0.8,17.366l5.433-3.205c-0.066,0.014-0.133,0.02-0.2,0.02c-0.342,0-0.676-0.176-0.862-0.492
		l-0.508-0.86l-2.015,1.189l-0.23-4.994l-0.295-0.501c-0.16,0.094-0.335,0.139-0.508,0.139c-0.342,0-0.675-0.176-0.862-0.491
		c-0.281-0.476-0.123-1.089,0.352-1.37l0.001-0.001l-0.508-0.862c-0.281-0.476-0.123-1.089,0.353-1.369
		c0.159-0.094,0.334-0.139,0.507-0.139c0.289,0,0.571,0.125,0.765,0.354l-0.2-4.33l-0.521,0.307
		c-0.159,0.094-0.334,0.139-0.507,0.139c-0.342,0-0.676-0.176-0.862-0.492C18.053,124.939,18.01,124.8,17.996,124.66
		 M16.983,118.777l-1.394,0.822c-0.159,0.094-0.334,0.139-0.507,0.139c-0.181,0-0.36-0.049-0.516-0.143l3.295,2.131l0.13,2.825
		c0.003-0.339,0.179-0.669,0.492-0.854l1.432-0.845l-0.103-2.246L16.983,118.777 M12.067,115.597l0.121,0.205
		c0.281,0.476,0.123,1.089-0.354,1.369c-0.159,0.094-0.334,0.139-0.507,0.139c-0.18,0-0.358-0.049-0.513-0.141l3.695,2.39
		c-0.115-0.08-0.214-0.185-0.29-0.313c-0.281-0.476-0.123-1.089,0.354-1.369l0.532-0.314L12.067,115.597 M19.519,98.705
		L0.037,110.197l10.714,6.93c-0.113-0.079-0.211-0.184-0.286-0.31l-1.016-1.723c-0.159,0.094-0.334,0.139-0.507,0.139
		c-0.342,0-0.676-0.176-0.862-0.492c-0.281-0.476-0.122-1.089,0.353-1.369l-0.12-0.204l-4.472-2.893l2.051-1.21l-0.508-0.861
		c-0.281-0.476-0.123-1.089,0.353-1.369c0.16-0.094,0.335-0.138,0.507-0.138c0.342,0,0.675,0.175,0.862,0.492l0.508,0.861
		l4.307-2.541l-0.508-0.861c-0.281-0.476-0.123-1.089,0.353-1.369c0.159-0.094,0.334-0.138,0.507-0.138
		c0.342,0,0.676,0.175,0.862,0.492l0.508,0.861l4.307-2.541l-0.508-0.861c-0.281-0.476-0.123-1.089,0.354-1.369
		c0.159-0.094,0.334-0.139,0.507-0.139c0.342,0,0.676,0.176,0.863,0.493l0.508,0.861l0.861-0.508l-0.344-0.583L19.519,98.705"/>
	<polyline class="st7" points="19.517,98.702 19.517,98.702 19.519,98.705 20.191,99.846 19.517,98.702 	"/>
	<polyline class="st6" points="24.091,106.457 23.23,106.965 25.77,111.272 26.631,110.764 24.091,106.457 	"/>
	<polyline class="st7" points="21.507,107.982 17.201,110.522 19.741,114.829 24.048,112.288 21.507,107.982 	"/>
	<polyline class="st7" points="27.648,112.487 26.786,112.995 29.327,117.301 30.188,116.793 27.648,112.487 	"/>
	<polyline class="st6" points="25.064,114.011 20.757,116.551 23.297,120.858 27.604,118.317 25.064,114.011 	"/>
	<polyline class="st6" points="31.204,118.516 30.343,119.024 32.883,123.331 33.744,122.822 31.204,118.516 	"/>
	<polyline class="st7" points="28.62,120.04 24.313,122.581 26.854,126.887 31.16,124.347 28.62,120.04 	"/>
	<polyline class="st6" points="45.418,122.93 46.902,125.447 46.903,125.447 45.418,122.93 	"/>
	<polyline class="st6" points="43.684,123.926 43.673,123.932 41.961,124.942 42.469,125.803 44.191,124.787 43.684,123.926 	"/>
	<path class="st7" d="M45.406,122.91l-1.711,1.009c-0.004,0.002-0.008,0.005-0.012,0.007l0,0l0.508,0.861l-1.723,1.016l0.508,0.862
		c0.222,0.377,0.169,0.841-0.1,1.157l4.027-2.375l-1.485-2.517L45.406,122.91"/>
	<path class="st7" d="M43.673,123.932c-0.022,0.013-0.045,0.025-0.068,0.035l-1.646,0.971l0.002,0.003L43.673,123.932
		 M45.404,122.906l-1.645,0.97c-0.021,0.015-0.042,0.029-0.064,0.042l1.711-1.009L45.404,122.906"/>
	<path class="st7" d="M43.759,123.877l-0.154,0.091c0.023-0.011,0.045-0.023,0.068-0.035c0.004-0.002,0.007-0.004,0.011-0.006l0,0
		c0.004-0.002,0.008-0.005,0.012-0.007C43.717,123.905,43.739,123.891,43.759,123.877"/>
	<polyline class="st7" points="34.761,124.545 33.899,125.053 36.439,129.36 40.746,126.82 40.238,125.958 36.793,127.99 
		36.791,127.987 36.791,127.987 34.761,124.545 	"/>
	<path class="st7" d="M40.746,126.82l-4.307,2.54l0.508,0.862c0.222,0.377,0.169,0.84-0.099,1.155l5.466-3.225
		c-0.066,0.014-0.133,0.02-0.199,0.02c-0.343,0-0.676-0.176-0.862-0.492L40.746,126.82"/>
	<polyline class="st7" points="40.236,125.955 36.791,127.987 36.793,127.99 40.238,125.958 40.236,125.955 	"/>
	<polyline class="st6" points="32.177,126.069 27.87,128.61 30.41,132.917 34.717,130.376 32.177,126.069 	"/>
	<path class="st7" d="M34.717,130.376l-4.307,2.541l0.508,0.862c0.222,0.377,0.169,0.84-0.098,1.155l5.465-3.224
		c-0.066,0.013-0.132,0.02-0.198,0.02c-0.342,0-0.676-0.176-0.862-0.492L34.717,130.376"/>
	<polyline class="st7" points="26.148,129.626 21.841,132.167 24.381,136.473 28.688,133.933 26.148,129.626 	"/>
	<path class="st7" d="M28.688,133.933l-4.306,2.54l0.508,0.861c0.223,0.377,0.169,0.841-0.1,1.157l5.466-3.224
		c-0.066,0.013-0.132,0.02-0.198,0.02c-0.342,0-0.676-0.176-0.862-0.492L28.688,133.933"/>
	<path class="st7" d="M41.959,124.939l-1.723,1.016l0.002,0.003l0.508,0.861l0.508,0.861c0.187,0.316,0.52,0.492,0.862,0.492
		c0.066,0,0.133-0.007,0.199-0.02l0.561-0.331c0.269-0.316,0.323-0.78,0.1-1.157l-0.508-0.862l-0.508-0.861L41.959,124.939"/>
	<path class="st7" d="M33.899,125.053l-1.722,1.016l2.54,4.307l0.508,0.861c0.186,0.316,0.52,0.492,0.862,0.492
		c0.066,0,0.132-0.007,0.198-0.02l0.564-0.332c0.268-0.316,0.321-0.779,0.099-1.155l-0.508-0.862L33.899,125.053 M30.343,119.024
		l-1.722,1.016l2.54,4.306l1.722-1.016L30.343,119.024 M26.786,112.995l-1.722,1.016l2.54,4.307l1.722-1.016L26.786,112.995
		 M23.23,106.965l-1.722,1.016l2.54,4.307l1.722-1.016L23.23,106.965 M18.303,99.582c-0.173,0-0.347,0.045-0.507,0.139
		c-0.476,0.28-0.634,0.894-0.354,1.369l0.508,0.861l2.54,4.306l1.722-1.016l-2.54-4.306l-0.508-0.861
		C18.979,99.759,18.645,99.582,18.303,99.582"/>
	<path class="st7" d="M27.87,128.61l-1.722,1.016l2.54,4.307l0.508,0.861c0.187,0.316,0.52,0.492,0.862,0.492
		c0.066,0,0.132-0.007,0.198-0.02l0.564-0.333c0.268-0.316,0.321-0.779,0.098-1.155l-0.508-0.862L27.87,128.61 M24.313,122.581
		l-1.722,1.016l2.54,4.306l1.722-1.016L24.313,122.581 M20.757,116.551l-1.722,1.016l2.541,4.307l1.722-1.016L20.757,116.551
		 M17.201,110.522l-1.722,1.016l2.54,4.307l1.722-1.016L17.201,110.522 M12.274,103.14c-0.173,0-0.348,0.045-0.507,0.138
		c-0.476,0.28-0.634,0.894-0.353,1.369l0.508,0.861l2.54,4.307l1.722-1.016l-2.54-4.307l-0.508-0.861
		C12.95,103.315,12.616,103.14,12.274,103.14"/>
	<path class="st7" d="M11.171,114.079l-1.722,1.016c0,0,0,0,0,0l1.016,1.723c0.075,0.127,0.173,0.231,0.286,0.31
		c0.021,0.014,0.042,0.028,0.063,0.041c0.155,0.092,0.333,0.141,0.513,0.141c0.172,0,0.348-0.045,0.507-0.139
		c0.476-0.28,0.634-0.894,0.354-1.369l-0.121-0.205L11.171,114.079 M6.245,106.697c-0.173,0-0.348,0.045-0.507,0.138
		c-0.476,0.28-0.634,0.894-0.353,1.369l0.508,0.861l2.42,4.103l0.12,0.204c0,0,0,0,0,0l1.722-1.016l-2.54-4.307l-0.508-0.861
		C6.92,106.872,6.587,106.697,6.245,106.697"/>
	<path class="st7" d="M21.841,132.167l-1.722,1.016c0,0,0,0,0,0l0.295,0.501l2.245,3.806l0.508,0.86
		c0.187,0.316,0.52,0.492,0.862,0.492c0.067,0,0.134-0.007,0.2-0.02l0.561-0.331c0.269-0.316,0.323-0.78,0.1-1.157l-0.508-0.861
		L21.841,132.167 M19.454,129.09c-0.173,0-0.348,0.045-0.507,0.139c-0.476,0.28-0.634,0.894-0.353,1.369l0.508,0.862l1.722-1.016
		l-0.508-0.861c-0.029-0.049-0.062-0.095-0.098-0.138C20.025,129.215,19.743,129.09,19.454,129.09"/>
	<path class="st7" d="M23.075,104.735l-0.861,0.508l-1.722,1.016l-4.307,2.541l-1.722,1.016l-4.307,2.541l-1.722,1.016c0,0,0,0,0,0
		c-0.475,0.28-0.634,0.893-0.353,1.369c0.187,0.316,0.52,0.492,0.862,0.492c0.172,0,0.348-0.045,0.507-0.139c0,0,0,0,0,0
		l1.722-1.016l4.307-2.541l1.722-1.016l4.307-2.541l1.722-1.016l0.861-0.508L23.075,104.735"/>
	<path class="st7" d="M26.631,110.764l-0.861,0.508l-1.722,1.016l-4.307,2.541l-1.722,1.016l-2.913,1.718l-0.532,0.314
		c-0.476,0.28-0.634,0.894-0.354,1.369c0.075,0.128,0.175,0.233,0.29,0.313c0.018,0.013,0.037,0.025,0.056,0.036
		c0.156,0.094,0.335,0.143,0.516,0.143c0.172,0,0.348-0.045,0.507-0.139l1.394-0.822l2.052-1.21l1.722-1.016l4.307-2.54l1.722-1.016
		l0.861-0.508L26.631,110.764"/>
	<path class="st7" d="M30.188,116.793l-0.861,0.508l-1.722,1.016l-4.307,2.541l-1.722,1.016l-1.66,0.979l-1.432,0.845
		c-0.314,0.185-0.49,0.514-0.492,0.854c0,0.036,0.001,0.072,0.005,0.108c0.014,0.14,0.058,0.278,0.134,0.407
		c0.187,0.316,0.52,0.492,0.862,0.492c0.173,0,0.348-0.045,0.507-0.139l0.521-0.307l2.572-1.517l1.722-1.016l4.307-2.541
		l1.722-1.016l0.861-0.508L30.188,116.793"/>
	<path class="st7" d="M33.744,122.822l-0.861,0.508l-1.722,1.016l-4.307,2.541l-1.722,1.016l-4.307,2.54l-1.722,1.016l-0.001,0.001
		c-0.475,0.281-0.633,0.895-0.352,1.37c0.187,0.315,0.52,0.491,0.862,0.491c0.173,0,0.348-0.045,0.508-0.139c0,0,0,0,0,0
		l1.722-1.016l4.307-2.54l1.722-1.016l4.307-2.541l1.722-1.016l0.861-0.508L33.744,122.822"/>
</g>
</svg>
