<?xml version="1.0" encoding="utf-8"?>
<!-- Generator: Adobe Illustrator 19.2.1, SVG Export Plug-In . SVG Version: 6.00 Build 0)  -->
<svg version="1.1" id="Layer_1" xmlns="http://www.w3.org/2000/svg" xmlns:xlink="http://www.w3.org/1999/xlink" x="0px" y="0px"
	 viewBox="0 0 114 150" style="enable-background:new 0 0 114 150;" xml:space="preserve">
<style type="text/css">
	.st0{fill:#B3C471;}
	.st1{fill:#CAD681;}
	.st2{fill:#585948;}
	.st3{fill:#7D1F4D;}
	.st4{fill:#FFFFFF;}
	.st5{fill:#5CD7FF;}
	.st6{fill:#7BF0D3;}
	.st7{fill:#4579B3;}
	.st8{fill:#E75C54;}
	.st9{fill:#FFE75B;}
	.st10{fill:#C55049;}
	.st11{fill:#E3B347;}
	.st12{fill:#A54242;}
	.st13{fill:#F7CC46;}
	.st14{fill:#E5B72D;}
	.st15{fill:#644E35;}
	.st16{opacity:0.2;}
	.st17{fill:#E5A13F;}
	.st18{fill:#A0A1A4;}
	.st19{fill:#6A5C4F;}
	.st20{fill:#D8F0F3;}
	.st21{fill:#64574B;}
	.st22{fill:#B6D7E0;}
	.st23{fill:#564B40;}
	.st24{fill:#99BCC8;}
	.st25{fill:#49494B;}
	.st26{fill:#EAFFFF;}
	.st27{fill:#756557;}
	.st28{fill:#383A3B;}
	.st29{fill:#2EB67F;}
	.st30{fill:#6D6D70;}
	.st31{fill:#59595B;}
	.st32{fill:#51DEFF;}
	.st33{fill:#40E0D6;}
	.st34{fill:#8FD7FF;}
	.st35{fill:#40CFE9;}
	.st36{fill:#3ED1BC;}
	.st37{fill:#8EB9FF;}
	.st38{fill:#425DB4;}
	.st39{fill:#F2557C;}
	.st40{fill:#CE3A62;}
	.st41{fill:#E3396F;}
	.st42{fill:#F4B0C5;}
	.st43{fill:#E73B60;}
	.st44{fill:#C5284C;}
	.st45{fill:#D92756;}
	.st46{fill:#EAEBEB;}
	.st47{clip-path:url(#SVGID_2_);fill:#E5E5E5;}
	.st48{fill:#D3D3D3;}
	.st49{fill:#E5E5E5;}
	.st50{fill:#254DAA;}
	.st51{fill:#214599;}
	.st52{fill:#F7ACAF;}
	.st53{fill:#EB2E38;}
	.st54{fill:#FFD66F;}
	.st55{fill:#CFA353;}
	.st56{fill:#CFC3BE;}
	.st57{fill:#87685C;}
	.st58{fill:#82D5A2;}
	.st59{fill:#56C681;}
	.st60{fill:#4AB569;}
	.st61{fill:#65CB8C;}
	.st62{fill:#DFE0E1;}
	.st63{fill:#1C9046;}
	.st64{fill:#76D8E8;}
	.st65{fill:#D393FF;}
	.st66{fill:#76D0E3;}
	.st67{fill:#D888FF;}
	.st68{fill:#715D94;}
	.st69{fill:#EA5FC9;}
	.st70{fill:#E04849;}
	.st71{fill:#F4CA94;}
	.st72{fill:#FC5B5A;}
	.st73{fill:#FC88E3;}
	.st74{fill:#FCAA52;}
	.st75{fill:#FDC866;}
	.st76{fill:#7A6CBE;}
	.st77{fill:#9480BE;}
	.st78{fill:#57CC76;}
	.st79{fill:#59E694;}
	.st80{fill:#434244;}
	.st81{fill:#BC936C;}
	.st82{fill:#C69F7B;}
	.st83{fill:#AD8863;}
	.st84{fill:#6F5E4B;}
	.st85{fill:#786652;}
	.st86{fill:#917056;}
	.st87{fill:#9653FF;}
	.st88{fill:#FCAB78;}
	.st89{fill:#5ED95E;}
	.st90{fill:#FDD75E;}
	.st91{fill:#FB5FFF;}
	.st92{fill:#2144B4;}
	.st93{fill:#7F7F7F;}
	.st94{fill:#8C8E91;}
	.st95{fill:#B5B7B9;}
	.st96{fill:#DBC5A8;}
	.st97{fill:#C7B085;}
	.st98{fill:#E882DC;}
	.st99{fill:#D365C4;}
	.st100{fill:#8B476B;}
	.st101{fill:#8FD096;}
	.st102{fill:#79BE7A;}
	.st103{fill:#4B9688;}
	.st104{fill:#2F7A6F;}
	.st105{fill:#E2983A;}
	.st106{fill:#F6A849;}
	.st107{fill:#F6A6B4;}
	.st108{fill:#F8B257;}
	.st109{fill:#DD8D33;}
	.st110{fill:#F09C40;}
	.st111{fill:#F2A54C;}
	.st112{fill:#B67738;}
	.st113{fill:#FFF272;}
	.st114{fill:#F9EDDF;}
	.st115{fill:#4CA0F5;}
	.st116{fill:#54AAF5;}
	.st117{fill:#4381D7;}
	.st118{fill:#4873C4;}
	.st119{fill:#FB3556;}
	.st120{opacity:0.1;fill:#434244;}
</style>
<g>
	<rect x="1" y="104.992" class="st4" width="112" height="36"/>
	<path class="st119" d="M106,74.992H8c-4.411,0-8,3.589-8,8v59c0,4.411,3.589,8,8,8h98c4.411,0,8-3.589,8-8v-59
		C114,78.581,110.411,74.992,106,74.992z M112,105.992v34H2v-34H112z"/>
	<g>
		<path class="st4" d="M46,85.995c-0.553,0-1,0.447-1,1v3h-3v-3c0-0.553-0.447-1-1-1s-1,0.447-1,1v8c0,0.553,0.447,1,1,1
			s1-0.447,1-1v-3h3v3c0,0.553,0.447,1,1,1s1-0.447,1-1v-8C47,86.443,46.553,85.995,46,85.995z"/>
		<path class="st4" d="M53,87.995c0.553,0,1-0.447,1-1s-0.447-1-1-1h-3c-0.553,0-1,0.447-1,1v8c0,0.553,0.447,1,1,1h3
			c0.553,0,1-0.447,1-1s-0.447-1-1-1h-2v-2h2c0.553,0,1-0.447,1-1s-0.447-1-1-1h-2v-2H53z"/>
		<path class="st4" d="M60,93.995h-2v-7c0-0.553-0.447-1-1-1s-1,0.447-1,1v8c0,0.553,0.447,1,1,1h3c0.553,0,1-0.447,1-1
			S60.553,93.995,60,93.995z"/>
		<path class="st4" d="M66,93.995h-2v-7c0-0.553-0.447-1-1-1s-1,0.447-1,1v8c0,0.553,0.447,1,1,1h3c0.553,0,1-0.447,1-1
			S66.553,93.995,66,93.995z"/>
		<path class="st4" d="M71,85.995c-1.654,0-3,1.346-3,3v4c0,1.654,1.346,3,3,3s3-1.346,3-3v-4C74,87.341,72.654,85.995,71,85.995z
			 M72,92.995c0,0.552-0.448,1-1,1s-1-0.448-1-1v-4c0-0.552,0.448-1,1-1s1,0.448,1,1V92.995z"/>
	</g>
	<path class="st120" d="M14,141.995v-59c0-4.411,3.589-8,8-8H8c-4.411,0-8,3.589-8,8v59c0,4.411,3.589,8,8,8h14
		C17.589,149.995,14,146.406,14,141.995z"/>
	<path class="st80" d="M90.262,132.203c-3.342-2.469-7.933-7.485-12.097-8.323c-3.185-0.641-6.281,2.062-8.855,4.116
		c-1.575-2.252-3.206-4.433-5.142-6.414c-1.249-1.278-3.354-0.279-3.414,1.414c-0.053,1.498-0.192,2.946-0.431,4.374
		c-1.358-2.158-2.522-4.399-3.395-6.905c-0.697-2.002-4.099-1.853-3.928,0.532c0.153,2.143,0.245,4.266,0.072,6.412
		c-0.351,4.34-0.913,1.818-2.839-0.342c-2.318-2.6-4.027-5.589-5.195-8.811c-0.352-1.271-0.73-2.536-1.11-3.791
		c-0.747-2.471-4.417-1.448-3.857,1.063c0.301,1.348,0.761,2.914,1.357,4.552c1.06,3.809,1.812,7.764,1.02,11.535
		c-4.336-6.628-7.951-13.588-10.521-21.15c-0.705-2.076-3.932-1.812-3.928,0.532c0.01,6.978,0.021,13.956,0.031,20.934
		c0.004,2.574,4.004,2.578,4,0c-0.005-3.568-0.011-7.136-0.016-10.705c2.607,5.505,5.725,10.745,9.258,15.781
		c0.802,1.143,2.72,1.442,3.454,0c1.217-2.392,1.786-4.833,1.933-7.294c1.555,1.889,3.341,3.385,5.332,4.116
		c3.218,1.181,4.529-1.197,5.007-4.279c0.773,1.231,1.599,2.441,2.479,3.645c1.01,1.382,3.094,1.252,3.655-0.478
		c0.521-1.605,0.896-3.214,1.158-4.843c0.982,1.29,1.908,2.624,2.833,3.976c0.572,0.836,1.799,1.371,2.736,0.717
		c2.775-1.936,5.691-5.268,9.044-3.843c3.212,1.365,6.51,4.845,9.339,6.935C90.315,137.188,92.312,133.718,90.262,132.203z"/>
</g>
</svg>
